<?xml version="1.0" encoding="utf-8"?>
<svg version="1.1" xmlns:xlink="http://www.w3.org/1999/xlink" width="12px" height="12px" viewBox="485 478  12 12" xmlns="http://www.w3.org/2000/svg">
  <path d="M 491 478  C 494.36 478  497 480.64  497 484  C 497 487.36  494.36 490  491 490  C 487.64 490  485 487.36  485 484  C 485 480.64  487.64 478  491 478  Z " fill-rule="nonzero" fill="#ffffff" stroke="none" />
  <path d="M 491 478.5  C 494.08 478.5  496.5 480.92  496.5 484  C 496.5 487.08  494.08 489.5  491 489.5  C 487.92 489.5  485.5 487.08  485.5 484  C 485.5 480.92  487.92 478.5  491 478.5  Z " stroke-width="1" stroke="#797979" fill="none" />
  <path d="M 491 487  C 489.32 487  488 485.68  488 484  C 488 482.32  489.32 481  491 481  C 492.68 481  494 482.32  494 484  C 494 485.68  492.68 487  491 487  " fill-rule="nonzero" fill="#797979" stroke="none" />
</svg>