<?xml version="1.0" encoding="utf-8"?>
<svg version="1.1" xmlns:xlink="http://www.w3.org/1999/xlink" width="12px" height="12px" viewBox="485 587  12 12" xmlns="http://www.w3.org/2000/svg">
  <path d="M 491 587  C 494.36 587  497 589.64  497 593  C 497 596.36  494.36 599  491 599  C 487.64 599  485 596.36  485 593  C 485 589.64  487.64 587  491 587  Z " fill-rule="nonzero" fill="#ffffff" stroke="none" />
  <path d="M 491 587.5  C 494.08 587.5  496.5 589.92  496.5 593  C 496.5 596.08  494.08 598.5  491 598.5  C 487.92 598.5  485.5 596.08  485.5 593  C 485.5 589.92  487.92 587.5  491 587.5  Z " stroke-width="1" stroke="#797979" fill="none" />
  <path d="M 491 596  C 489.32 596  488 594.68  488 593  C 488 591.32  489.32 590  491 590  C 492.68 590  494 591.32  494 593  C 494 594.68  492.68 596  491 596  " fill-rule="nonzero" fill="#797979" stroke="none" />
</svg>