<?xml version="1.0" encoding="utf-8"?>
<svg version="1.1" xmlns:xlink="http://www.w3.org/1999/xlink" width="12px" height="12px" viewBox="485 978  12 12" xmlns="http://www.w3.org/2000/svg">
  <path d="M 491 978  C 494.36 978  497 980.64  497 984  C 497 987.36  494.36 990  491 990  C 487.64 990  485 987.36  485 984  C 485 980.64  487.64 978  491 978  Z " fill-rule="nonzero" fill="#ffffff" stroke="none" />
  <path d="M 491 978.5  C 494.08 978.5  496.5 980.92  496.5 984  C 496.5 987.08  494.08 989.5  491 989.5  C 487.92 989.5  485.5 987.08  485.5 984  C 485.5 980.92  487.92 978.5  491 978.5  Z " stroke-width="1" stroke="#797979" fill="none" />
  <path d="M 491 987  C 489.32 987  488 985.68  488 984  C 488 982.32  489.32 981  491 981  C 492.68 981  494 982.32  494 984  C 494 985.68  492.68 987  491 987  " fill-rule="nonzero" fill="#797979" stroke="none" />
</svg>