<?xml version="1.0" encoding="utf-8"?>
<svg version="1.1" xmlns:xlink="http://www.w3.org/1999/xlink" width="12px" height="12px" viewBox="485 1087  12 12" xmlns="http://www.w3.org/2000/svg">
  <path d="M 491 1087  C 494.36 1087  497 1089.64  497 1093  C 497 1096.36  494.36 1099  491 1099  C 487.64 1099  485 1096.36  485 1093  C 485 1089.64  487.64 1087  491 1087  Z " fill-rule="nonzero" fill="#ffffff" stroke="none" />
  <path d="M 491 1087.5  C 494.08 1087.5  496.5 1089.92  496.5 1093  C 496.5 1096.08  494.08 1098.5  491 1098.5  C 487.92 1098.5  485.5 1096.08  485.5 1093  C 485.5 1089.92  487.92 1087.5  491 1087.5  Z " stroke-width="1" stroke="#797979" fill="none" />
  <path d="M 491 1096  C 489.32 1096  488 1094.68  488 1093  C 488 1091.32  489.32 1090  491 1090  C 492.68 1090  494 1091.32  494 1093  C 494 1094.68  492.68 1096  491 1096  " fill-rule="nonzero" fill="#797979" stroke="none" />
</svg>